<svg xmlns="http://www.w3.org/2000/svg" width="300" height="479" fill="none"><path fill="#FFD9D9" d="M153.335 457.679c9.114.787 24.933 2.068 37.404 2.617 7.499.328 11.811-.404 14.299-1.399-.004.278-.012.544-.023.789-.06 1.314-1.127 2.362-2.45 2.437-23.568 1.316-42.305.454-48.976.048-1.381-.083-2.205-1.582-1.498-2.758.356-.589.779-1.165 1.244-1.734Z"/><path fill="url(#a)" d="M190.736 460.296c-12.468-.549-28.287-1.83-37.401-2.617 8.959-10.994 37.401-18.404 37.401-18.404h8.036c5.525 7.964 6.323 15.546 6.263 19.622-2.485.995-6.8 1.727-14.299 1.399Z"/><path fill="#FEBBBA" d="m200.122 426.16-.75 14.875a3.399 3.399 0 0 1-2.904 3.196c-1.602.23-3.751.258-6.032-.499a4.022 4.022 0 0 1-2.701-3.091l-2.596-14.481h14.983Z"/><path fill="#FFD9D9" d="M293.36 474.839c3.952-.712 5.742-3.366 6.489-6.204.009.025.013.053.018.078.58 2.993-.765 6.094-3.463 7.568-3.258 1.785-6.817 2.088-9.582 1.94-2.969-.158-5.69-1.745-7.188-4.284l-.021-.038c2.978 1.903 7.157 2.128 13.747.94Z"/><path fill="url(#b)" d="M274.722 430.743h6.624c10.092-.266 16.428 27.242 18.5 37.893-.75 2.838-2.535 5.492-6.488 6.204-6.593 1.188-10.773.963-13.749-.94-5.454-9.272-8.155-22.851-9.455-30.777-1.479-9.014 4.568-12.38 4.568-12.38Z"/><path fill="#FEBBBA" d="m280.497 416.935 3.679 14.632c.452 1.795-.405 3.65-2.066 4.5-2.057 1.057-4.955 2.165-7.618 1.845-1.255-.151-2.292-1.033-2.706-2.212l-5.399-15.393 14.11-3.372Z"/><path fill="#0A025C" d="M151.092 224.236s32.874 205.491 32.332 206.619c0 0 9.079 4.128 18.976.527 0 0-2.971-109.85-9.94-151.969 0 0 56.108 98.183 73.924 147.108 0 0 9.291-1.108 16.984-6.171 0 0-60.412-176.728-76.527-200.265l-55.749 4.151Z"/><path fill="#FEBBBA" d="M.234 23.015s22.182 4.893 35.677 11.12a12.326 12.326 0 0 1 6.032 6.067c4.037 8.84 16.108 31.008 39.522 41.583-3.374 4.478-8.802 13.785-11.166 29.432-14.061-10.467-26.201-27.948-32.03-56.611 0 0-4.44 2.413-9.975-.276-2.927-1.422-6.305-3.437-8.837-5.023-2.528-1.578-4.41-4.033-5.14-6.9-.965-3.787-.399-7.115-.399-10.685l-11.4-3.534s-3.43-1.292-2.284-5.173Z"/><path fill="url(#c)" d="M70.296 111.218c2.367-15.647 7.795-24.956 11.166-29.433 14.547 6.57 33.467 8.676 57.558.327a25.558 25.558 0 0 1 6.888-1.36c12.826-.754 55.091-2.123 90.063 9.428 7.361 2.433 13.322 7.877 16.392 14.927 9.462 21.708 24.778 71.152-17.74 96.115-3.269-8.112-7.038-14.629-10.265-19.419 6.851-11.551 8.879-27.326-3.276-47.868-8.858 23.926-13.016 58.832-13.885 74.283a33.25 33.25 0 0 0 2.602 14.86l.22.511a1.76 1.76 0 0 1-1.237 2.401c-23.938 5.377-48.832 3.916-56.271 3.302a3.076 3.076 0 0 1-2.739-2.344c-11.638-49.046-11.663-82.5-8.812-103.65-10.889 2.433-44.186 7.625-70.664-12.08Z"/><path fill="url(#d)" d="M199.987 52.18s2.422 25.605 4.554 33.178a2.587 2.587 0 0 1-1.221 2.96c-3.621 2.067-12.298 5.438-24.168-.379-1.928-.944-3.08-2.947-2.99-5.071l1.044-24.743 22.781-5.944Z"/><path fill="url(#e)" d="M176.685 19.425s-7.744 17.79-8.265 27.13c-.52 9.34-2.533 15.4 8.265 17.28 10.799 1.88 19.892-3.499 24.822-12.801 0 0 7.722-14.335 5.99-20.207-1.732-5.868-30.812-11.402-30.812-11.402Z"/><path fill="#0B035C" d="m197.818 44.343-.617-.272a1.482 1.482 0 0 1-.723-2.035c1.523-2.944 4.494-9.682.657-11.255-4.94-2.027-24.518-6.02-28.743-12.967-4.059-6.676-.458-15.294 4.944-17.745a.748.748 0 0 1 .974.319l.451.854c.307.583 1.169.493 1.352-.14a.732.732 0 0 1 1.324-.19c1.297 2.078 4.8 5.449 14.175 7.177 13.321 2.458 22.129 7.853 22.347 17.057.015.583.637.909 1.138.602.982-.598 2.555-.878 4.66.89 3.658 3.075 2.163 11.056-5.86 17.62-.381.31-.377.908.035 1.176 1.456.944 3.623 3.197-1.997 6.199-5.806 3.106-10.144 2.85-11.814 2.574a.733.733 0 0 1-.594-.881l1.783-8.09a.735.735 0 0 0-.715-.893h-2.777Z"/><path fill="url(#f)" d="M197.482 46.053s2.952-11.367 8.049-8.179c5.097 3.188-2.645 12.733-6.74 13.161l-1.309-4.982Z"/><path fill="#FF9A96" d="M32.352 51.96a.992.992 0 0 0 .613-.215.976.976 0 0 0 .14-1.367c-.839-1.032-8.283-10.134-11.15-11.755-1.046-.59-1.666-1.195-1.8-1.757-.061-.271-.02-.572.13-.915l8.747 1.75 4.954 4.256a.975.975 0 0 0 1.37-.107.975.975 0 0 0-.102-1.37l-5.15-4.42a1.002 1.002 0 0 0-.441-.212L19.98 33.91a.963.963 0 0 0-.997.408c-.713 1.055-.946 2.031-.72 2.99.268 1.138 1.162 2.118 2.734 3.005 2.159 1.223 8.38 8.565 10.6 11.292.192.237.47.357.754.357Z"/><path fill="url(#g)" d="m197.858 213.526-34.234.424 11.981-11.277c2.976-2.806 7.522-3.259 10.962-1.03 2.013 1.305 4.197 3.078 6.083 5.426 0 0 21.357-7.805 31.713-25.268 3.222 4.792 6.995 11.307 10.261 19.42-9.282 5.45-21.31 9.734-36.766 12.305Z"/><path fill="#B4B8C1" d="M194.167 217.944c-.067.003-.134.003-.202.003l-86.903-.093c-2.149-.004-3.887-1.727-3.883-3.854 0-2.122 1.749-3.879 3.894-3.842l86.904.094c2.149 0 3.887 1.723 3.883 3.853 0 2.056-1.637 3.738-3.693 3.839Z"/><path fill="#B4B8C1" d="M28.94 139.87h72.378c5.339 0 10.196 3.05 12.475 7.827l33.459 70.198H57.31c-3.44 0-6.532-2.08-7.8-5.247l-25.943-64.957c-1.501-3.753 1.295-7.821 5.374-7.821Z"/><defs><linearGradient id="a" x1="179.187" x2="179.062" y1="475.63" y2="439.87" gradientUnits="userSpaceOnUse"><stop stop-color="#5200FF"/><stop offset="1" stop-color="#FF385C"/></linearGradient><linearGradient id="b" x1="284.884" x2="283.908" y1="507.981" y2="432.016" gradientUnits="userSpaceOnUse"><stop stop-color="#5200FF"/><stop offset="1" stop-color="#FF385C"/></linearGradient><linearGradient id="c" x1="166.646" x2="164.957" y1="338.153" y2="84.497" gradientUnits="userSpaceOnUse"><stop stop-color="#5200FF"/><stop offset="1" stop-color="#FF385C"/></linearGradient><linearGradient id="d" x1="504.43" x2="492.73" y1="-135.103" y2="-196.528" gradientUnits="userSpaceOnUse"><stop stop-color="#FEBBBA"/><stop offset="1" stop-color="#FF928E"/></linearGradient><linearGradient id="e" x1="477.234" x2="544.327" y1="-252.04" y2="-200.703" gradientUnits="userSpaceOnUse"><stop stop-color="#FEBBBA"/><stop offset="1" stop-color="#FF928E"/></linearGradient><linearGradient id="f" x1="484.791" x2="551.827" y1="-262.186" y2="-210.894" gradientUnits="userSpaceOnUse"><stop stop-color="#FEBBBA"/><stop offset="1" stop-color="#FF928E"/></linearGradient><linearGradient id="g" x1="616.968" x2="785.015" y1="-122.171" y2="-404.917" gradientUnits="userSpaceOnUse"><stop stop-color="#FEBBBA"/><stop offset="1" stop-color="#FF928E"/></linearGradient></defs></svg>