<svg xmlns="http://www.w3.org/2000/svg" width="30" height="28" fill="none"><path fill="url(#a)" d="M16.992 0c2.475 0 4.619.459 6.432 1.376 1.813.917 3.2 2.208 4.16 3.872.981 1.664 1.472 3.584 1.472 5.76 0 1.75-.31 3.403-.928 4.96-.597 1.557-1.472 2.816-2.624 3.776-1.152.96-2.517 1.44-4.096 1.44-1.11 0-2.005-.224-2.688-.672-.683-.47-1.12-1.13-1.312-1.984-.619.832-1.419 1.493-2.4 1.984a7.107 7.107 0 0 1-3.104.704c-1.621 0-2.89-.48-3.808-1.44-.917-.981-1.376-2.315-1.376-4 0-1.6.33-3.093.992-4.48.661-1.387 1.579-2.496 2.752-3.328 1.173-.853 2.496-1.28 3.968-1.28 1.835 0 3.093.64 3.776 1.92l.288-1.664h3.744l-1.504 8.64a7.21 7.21 0 0 0-.096 1.12c0 .512.107.896.32 1.152.213.256.576.384 1.088.384.768 0 1.408-.363 1.92-1.088.533-.725.928-1.632 1.184-2.72a13.17 13.17 0 0 0 .416-3.264c0-2.581-.79-4.576-2.368-5.984-1.579-1.43-3.808-2.144-6.688-2.144-2.453 0-4.672.597-6.656 1.792-1.984 1.173-3.541 2.784-4.672 4.832-1.11 2.027-1.664 4.288-1.664 6.784 0 2.645.779 4.683 2.336 6.112 1.579 1.43 3.808 2.144 6.688 2.144 2.07 0 3.893-.373 5.472-1.12l.64 2.944c-2.027.853-4.277 1.28-6.752 1.28-2.39 0-4.48-.459-6.272-1.376-1.792-.896-3.179-2.176-4.16-3.84C.491 20.928 0 18.997 0 16.8c0-3.136.725-5.984 2.176-8.544 1.472-2.56 3.499-4.576 6.08-6.048C10.859.736 13.771 0 16.992 0Zm-3.68 17.888c.768 0 1.472-.224 2.112-.672a4.587 4.587 0 0 0 1.504-1.792c.383-.742.58-1.565.576-2.4 0-.896-.245-1.621-.736-2.176-.49-.555-1.173-.832-2.048-.832a3.18 3.18 0 0 0-2.08.736c-.597.47-1.067 1.088-1.408 1.856a6.26 6.26 0 0 0-.48 2.432c0 .875.213 1.568.64 2.08.427.512 1.067.768 1.92.768Z"/><defs><linearGradient id="a" x1="14.528" x2="14.27" y1="0" y2="57.088" gradientUnits="userSpaceOnUse"><stop stop-color="#FF385C"/><stop offset="1" stop-color="#5200FF"/></linearGradient></defs></svg>