<svg xmlns="http://www.w3.org/2000/svg" width="50" height="56" fill="none"><path fill="#1572B6" d="M4.492 50.402 0 0h49.376l-4.498 50.394L24.658 56 4.492 50.402Z"/><path fill="#33A9DC" d="m24.688 51.716 16.34-4.53 3.844-43.064H24.688v47.594Z"/><path fill="#fff" d="M24.688 22.382h8.18l.564-6.33h-8.744V9.87h15.5l-.148 1.658-1.518 17.036H24.688v-6.182Z"/><path fill="#EBEBEB" d="m24.726 38.436-.028.008-6.884-1.86-.44-4.93h-6.206l.866 9.706 12.662 3.516.03-.008v-6.432Z"/><path fill="#fff" d="m32.342 28.302-.744 8.278-6.894 1.86v6.432l12.672-3.512.094-1.044 1.074-12.014h-6.202Z"/><path fill="#EBEBEB" d="M24.71 9.87v6.182H9.778l-.124-1.39-.282-3.134-.148-1.658H24.71Zm-.022 12.512v6.182H17.89l-.124-1.39-.28-3.134-.148-1.658h7.35Z"/></svg>