<svg xmlns="http://www.w3.org/2000/svg" width="56" height="56" fill="none"><path fill="#3A4E55" d="M32.383 22.04H37.4v5.132h2.54a11 11 0 0 0 3.487-.585 8.918 8.918 0 0 0 1.696-.765 6.298 6.298 0 0 1-1.178-3.246 6.854 6.854 0 0 1 1.232-4.832l.528-.61.628.506a8 8 0 0 1 3.15 5.076 7.674 7.674 0 0 1 5.826.542l.69.4-.362.708a7.258 7.258 0 0 1-7.296 3.48c-4.346 10.825-13.8 15.95-25.283 15.95A15.915 15.915 0 0 1 8.602 36.32l-.05-.086-.452-.918a14.56 14.56 0 0 1-1.158-7.385l.07-.76h4.285v-5.13h5.02v-5.02h10.04V12h6.024v10.04h.002Z"/><path fill="#00AADA" d="M48.648 23.94a6.621 6.621 0 0 0-2.836-5.642 6.144 6.144 0 0 0 .578 7.642 10.558 10.558 0 0 1-6.45 2.073H7.769a13.558 13.558 0 0 0 1.334 7.474l.366.67c.231.393.484.773.758 1.138a42.25 42.25 0 0 0 3.657.09 17.942 17.942 0 0 0 5.338-.778.386.386 0 0 1 .252.73c-.18.062-.368.122-.562.176a16.796 16.796 0 0 1-3.69.6c.088 0-.091.014-.091.014l-.165.014a42.893 42.893 0 0 1-4.015-.012l-.02.014a15.763 15.763 0 0 0 12.125 4.82c11.12 0 20.551-4.93 24.73-16 2.963.304 5.811-.451 7.105-2.98a6.999 6.999 0 0 0-6.244-.043"/><path fill="#27B9EC" d="M48.648 23.94a6.621 6.621 0 0 0-2.836-5.642 6.143 6.143 0 0 0 .578 7.642 10.558 10.558 0 0 1-6.45 2.073H9.675a10.446 10.446 0 0 0 4.211 9.372 17.942 17.942 0 0 0 5.338-.778.386.386 0 0 1 .252.73c-.18.062-.368.122-.562.176a17.663 17.663 0 0 1-3.788.628l-.038-.044c3.784 1.942 9.272 1.934 15.564-.482a43.735 43.735 0 0 0 18.2-13.777l-.2.096"/><path fill="#088CB9" d="M7.828 31.361c.19 1.436.62 2.83 1.274 4.122l.366.67c.231.393.484.773.758 1.138 1.322.085 2.541.115 3.657.09a17.945 17.945 0 0 0 5.338-.778.387.387 0 0 1 .252.73c-.18.062-.368.122-.562.176a17.655 17.655 0 0 1-3.782.614h-.2c-.582.032-1.2.052-1.844.052a44.69 44.69 0 0 1-2.2-.052 15.826 15.826 0 0 0 12.152 4.826c9.52 0 17.8-3.614 22.6-11.6l-37.81.012Z"/><path fill="#039CC7" d="M9.962 31.361a9.664 9.664 0 0 0 3.921 6.02 17.942 17.942 0 0 0 5.338-.778.386.386 0 0 1 .252.73c-.18.062-.368.122-.562.176-1.24.34-2.515.547-3.8.614 3.784 1.942 9.256 1.914 15.546-.504a41.088 41.088 0 0 0 10.753-6.26l-31.448.002Z"/><path fill="#00ACD3" d="M15.78 23.24h.343v3.625h-.344V23.24Zm-.66 0h.357v3.625h-.358V23.24Zm-.66 0h.357v3.625h-.356V23.24h-.002Zm-.66 0h.357v3.625h-.356V23.24H13.8Zm-.66 0h.357v3.625h-.356V23.24h-.002Zm-.647 0h.344v3.625h-.34V23.24h-.004Zm-.361-.362h4.35v4.351h-4.348v-4.351h-.002Zm8.67-4.658h.343v3.626h-.344V18.22Zm-.66 0h.357v3.626h-.358V18.22Zm-.66 0h.357v3.626h-.358V18.22Zm-.66 0h.357v3.626h-.358V18.22Zm-.66 0h.355v3.626h-.356V18.22Zm-.647 0h.344v3.626h-.344V18.22Zm-.362-.362h4.352v4.352h-4.35v-4.354l-.002.002Z"/><path fill="#26C2EE" d="M20.801 23.24h.344v3.625h-.344V23.24Zm-.66 0h.358v3.625h-.358V23.24Zm-.66 0h.358v3.625h-.358V23.24Zm-.66 0h.358v3.625h-.358V23.24Zm-.66 0h.356v3.625h-.356V23.24Zm-.646 0h.344v3.625h-.344V23.24Zm-.362-.362h4.352v4.351h-4.35v-4.351h-.002Z"/><path fill="#00ACD3" d="M25.819 23.24h.344v3.625h-.344V23.24Zm-.66 0h.358v3.625h-.356V23.24h-.002Zm-.66 0h.358v3.625h-.356V23.24H24.5Zm-.66 0h.362v3.625h-.358V23.24h-.004Zm-.66 0h.358v3.625h-.358V23.24Zm-.646 0h.344v3.625h-.344V23.24Zm-.362-.362h4.352v4.351h-4.348v-4.351h-.004Z"/><path fill="#26C2EE" d="M25.819 18.22h.344v3.626h-.344V18.22Zm-.66 0h.358v3.626h-.356V18.22h-.002Zm-.66 0h.358v3.626h-.356V18.22H24.5Zm-.66 0h.362v3.626h-.358V18.22h-.004Zm-.66 0h.358v3.626h-.358V18.22Zm-.646 0h.344v3.626h-.344V18.22Zm-.362-.362h4.352v4.352h-4.348v-4.354l-.004.002Zm8.67 5.382h.344v3.625h-.344V23.24Zm-.66 0h.358v3.625h-.358V23.24Zm-.66 0h.358v3.625h-.358V23.24Zm-.66 0h.358v3.625h-.358V23.24Zm-.66 0h.358v3.625H28.2V23.24Zm-.646 0h.344v3.625h-.344V23.24Zm-.354-.362h4.352v4.351H27.2v-4.351Z"/><path fill="#00ACD3" d="M30.84 18.22h.345v3.626h-.344V18.22Zm-.66 0h.359v3.626h-.358V18.22Zm-.66 0h.359v3.626h-.358V18.22Zm-.66 0h.359v3.626h-.358V18.22Zm-.66 0h.359v3.626H28.2V18.22Zm-.645 0h.344v3.626h-.344V18.22Zm-.362-.362h4.352v4.352H27.2v-4.354l-.008.002Z"/><path fill="#26C2EE" d="M30.84 13.198h.345v3.626h-.344v-3.626Zm-.66 0h.359v3.626h-.358v-3.626Zm-.66 0h.359v3.626h-.358v-3.626Zm-.66 0h.359v3.626h-.358v-3.626Zm-.66 0h.359v3.626H28.2v-3.626Zm-.645 0h.344v3.626h-.344v-3.626Zm-.354-.362h4.352v4.352H27.2v-4.352Z"/><path fill="#00ACD3" d="M35.86 23.24h.34v3.625h-.34V23.24Zm-.66 0h.357v3.625H35.2V23.24Zm-.66 0h.359v3.625h-.358V23.24Zm-.66 0h.359v3.625h-.358V23.24Zm-.66 0h.359v3.625h-.358V23.24Zm-.645 0h.344v3.625h-.344V23.24Zm-.362-.362h4.352v4.351h-4.35v-4.351h-.002Z"/><path fill="#D5EEF2" d="M21.233 34.283a1.2 1.2 0 1 1 0 2.399 1.2 1.2 0 0 1 0-2.399"/><path fill="#3A4E55" d="M21.233 34.623c.107 0 .213.02.312.058a.35.35 0 1 0 .482.472.86.86 0 1 1-.8-.53h.006ZM.002 31.795H55.84c-1.216-.308-3.846-.724-3.414-2.318-2.21 2.558-7.541 1.8-8.888.534-1.497 2.174-10.221 1.348-10.83-.346-1.877 2.2-7.699 2.2-9.577 0-.6 1.694-9.332 2.52-10.83.346-1.345 1.262-6.675 2.024-8.887-.534.434 1.6-2.2 2.01-3.414 2.318"/><path fill="#C0DBE1" d="M24.423 42.933a10.574 10.574 0 0 1-5.512-5.422 18.399 18.399 0 0 1-3.973.6 34.7 34.7 0 0 1-1.834.05 43.58 43.58 0 0 1-2.336-.066 15.883 15.883 0 0 0 12.29 4.86c.458 0 .913-.009 1.365-.026"/><path fill="#D5EEF2" d="M20.015 39.443a10.408 10.408 0 0 1-1.104-1.932 18.4 18.4 0 0 1-3.974.6 12.649 12.649 0 0 0 5.078 1.328"/></svg>