<svg xmlns="http://www.w3.org/2000/svg" width="50" height="56" fill="none" viewBox="0 0 50 56">
  <path fill="#E44F26" d="M4.494 50.402 0 0h49.38l-4.5 50.394L24.66 56 4.494 50.402Z"/>
  <path fill="#F1662A" d="m24.69 51.716 16.34-4.53 3.844-43.064H24.69v47.594Z"/>
  <path fill="#EBEBEB" d="M24.69 22.814h-8.18l-.564-6.33h8.744v-6.182H9.19l.148 1.66 1.518 17.034H24.69v-6.182Zm0 16.054-.028.008-6.884-1.858-.44-4.93h-6.206l.866 9.704 12.664 3.516.028-.008v-6.432Z"/>
  <path fill="#fff" d="M24.668 22.814v6.182h7.612l-.716 8.018-6.896 1.86v6.432l12.674-3.514.092-1.044 1.452-16.274.152-1.66h-14.37Zm0-12.512v6.182H39.6l.124-1.388.282-3.134.148-1.66H24.668Z"/>
</svg>
