<svg xmlns="http://www.w3.org/2000/svg" width="56" height="56" fill="none"><path fill="#F5DE19" d="M0 0h56v56H0V0Z"/><path fill="#000" d="M37.618 43.75a5.733 5.733 0 0 0 5.2 3.2c2.18 0 3.574-1.09 3.574-2.6 0-1.8-1.432-2.444-3.832-3.494l-1.316-.564c-3.8-1.618-6.32-3.644-6.32-7.928 0-3.946 3-6.952 7.706-6.952a7.778 7.778 0 0 1 7.484 4.214L46 32.256A3.577 3.577 0 0 0 42.622 30a2.289 2.289 0 0 0-2.518 2.256c0 1.578.978 2.218 3.236 3.2l1.316.564c4.472 1.918 7 3.872 7 8.266 0 4.738-3.722 7.334-8.72 7.334a10.11 10.11 0 0 1-9.59-5.382l4.272-2.488Zm-18.59.456c.826 1.466 1.578 2.706 3.386 2.706 1.728 0 2.82-.676 2.82-3.306V25.712h5.262v17.964c0 5.448-3.2 7.928-7.858 7.928a8.17 8.17 0 0 1-7.894-4.8l4.284-2.598Z"/></svg>