<svg xmlns="http://www.w3.org/2000/svg" width="56" height="56" fill="none" viewBox="0 0 56 56">
  <path fill="#fff" d="M13.214 19.811h10.562v.84h-9.594v6.318h9.022v.84h-9.022v6.936h9.704v.84H13.214V19.811Zm11.508 0h1.122l4.973 6.937 5.083-6.937L42.814 11 31.455 27.477l5.854 8.108h-1.167l-5.325-7.379-5.347 7.379h-1.144l5.897-8.108-5.501-7.666Zm13.005.84v-.84h12.036v.84h-5.545v14.934h-.968V20.65h-5.523ZM0 19.81h1.21L17.9 44.784l-6.897-9.2-9.99-14.58-.044 14.581H0V19.811Zm49.665 14.681a.342.342 0 0 1-.346-.351c0-.198.149-.352.346-.352.2 0 .347.154.347.352a.34.34 0 0 1-.347.351Zm.952-.924h.518c.007.28.212.469.513.469.337 0 .528-.203.528-.582v-2.406h.527v2.408c0 .684-.395 1.078-1.05 1.078-.615 0-1.036-.382-1.036-.967Zm2.776-.03h.523c.045.322.36.527.815.527.424 0 .734-.22.734-.52 0-.26-.197-.416-.647-.522l-.438-.106c-.615-.144-.895-.441-.895-.94 0-.607.495-1.01 1.236-1.01.69 0 1.194.403 1.225.976h-.514c-.049-.314-.322-.51-.718-.51-.416 0-.694.201-.694.508 0 .243.178.382.621.485l.375.092c.697.163.984.446.984.958 0 .65-.504 1.059-1.31 1.059-.753 0-1.26-.39-1.297-.998Z"/>
</svg>
