<svg xmlns="http://www.w3.org/2000/svg" width="31" height="32" fill="none"><path stroke="#fff" stroke-linecap="round" stroke-linejoin="round" stroke-width="2" d="M3.165 1.013a5.677 5.677 0 0 1 1.622.616l17.209 9.505-4.76 4.865L1.85 1.321a1.995 1.995 0 0 1 1.314-.308v0Zm-1.314.308L17.26 16 1.868 30.653C1.3 30.2 1 29.283 1 27.93V4.07c0-1.354.292-2.287.811-2.74l.04-.009Zm20.144 9.813 5.677 3.138c2.02 1.12 2.02 2.303 0 3.422l-5.677 3.139-4.76-4.866 4.76-4.866v.033Zm0 9.731L4.82 30.37c-.941.518-2.206.964-2.952.283L17.235 16l4.76 4.865Z"/></svg>