<svg xmlns="http://www.w3.org/2000/svg" width="56" height="50" fill="none" viewBox="0 0 56 50">
  <path fill="#00D8FF" d="M46.043 16.149a37.5 37.5 0 0 0-1.802-.568c.101-.416.195-.826.278-1.23 1.365-6.624.473-11.96-2.574-13.717-2.922-1.684-7.7.072-12.525 4.271a37.5 37.5 0 0 0-1.394 1.28 34.057 34.057 0 0 0-.928-.857C22.041.838 16.972-1.055 13.928.708c-2.918 1.689-3.783 6.705-2.554 12.983.122.622.26 1.24.414 1.855-.718.204-1.41.421-2.073.652C3.786 18.265 0 21.505 0 24.865c0 3.47 4.065 6.951 10.24 9.062.5.17 1.006.328 1.514.474a36.569 36.569 0 0 0-.44 1.998c-1.17 6.17-.256 11.067 2.655 12.746 3.006 1.734 8.052-.048 12.966-4.343.398-.35.788-.708 1.168-1.077.492.474.997.935 1.514 1.381 4.76 4.096 9.46 5.75 12.368 4.066 3.004-1.739 3.98-7 2.713-13.402-.1-.502-.212-1.001-.336-1.497.354-.105.702-.213 1.041-.326C51.823 31.82 56 28.382 56 24.865c0-3.373-3.909-6.634-9.957-8.716Zm-1.392 15.528c-.306.101-.62.199-.94.294-.71-2.244-1.666-4.63-2.837-7.095 1.117-2.406 2.037-4.761 2.726-6.99.573.166 1.129.34 1.665.525 5.182 1.784 8.343 4.421 8.343 6.454 0 2.165-3.414 4.975-8.957 6.812Zm-2.3 4.557c.56 2.83.64 5.39.269 7.391-.333 1.798-1.004 2.996-1.834 3.477-1.764 1.021-5.538-.307-9.609-3.81-.48-.414-.95-.842-1.408-1.283 1.578-1.726 3.155-3.732 4.694-5.96 2.708-.24 5.265-.633 7.585-1.17.111.45.212.901.303 1.355ZM19.09 46.925c-1.724.609-3.097.626-3.927.148-1.766-1.019-2.5-4.952-1.5-10.227.12-.624.256-1.244.41-1.86 2.293.508 4.833.873 7.546 1.093 1.55 2.18 3.172 4.184 4.807 5.94a29.4 29.4 0 0 1-1.066.982c-2.173 1.899-4.35 3.246-6.27 3.924Zm-8.077-15.262c-2.73-.933-4.986-2.146-6.531-3.47-1.39-1.189-2.09-2.37-2.09-3.328 0-2.04 3.04-4.64 8.11-6.408.615-.214 1.26-.417 1.928-.607.7 2.28 1.62 4.663 2.729 7.073-1.124 2.446-2.056 4.867-2.764 7.173a29.516 29.516 0 0 1-1.382-.433Zm2.708-18.431c-1.053-5.379-.354-9.436 1.405-10.454 1.874-1.085 6.016.461 10.383 4.339.284.253.565.511.84.775-1.627 1.747-3.235 3.736-4.77 5.904-2.634.244-5.155.636-7.473 1.161a35.079 35.079 0 0 1-.385-1.725Zm24.156 5.964a76.083 76.083 0 0 0-1.703-2.8 52.9 52.9 0 0 1 5.106.892 51.128 51.128 0 0 1-1.792 4.823 83.404 83.404 0 0 0-1.611-2.915Zm-9.851-9.594a51.155 51.155 0 0 1 3.295 3.978 70.446 70.446 0 0 0-6.618-.001 52.797 52.797 0 0 1 3.323-3.977Zm-9.914 9.61a70.691 70.691 0 0 0-1.581 2.897 52.806 52.806 0 0 1-1.78-4.846 54.04 54.04 0 0 1 5.078-.872 70.276 70.276 0 0 0-1.717 2.822Zm1.768 14.296a50.897 50.897 0 0 1-5.161-.83 53.56 53.56 0 0 1 1.815-4.943 70.223 70.223 0 0 0 3.346 5.773Zm8.212 6.788a53.598 53.598 0 0 1-3.37-4.032 83.75 83.75 0 0 0 3.277.064c1.141 0 2.27-.026 3.38-.076a50.885 50.885 0 0 1-3.287 4.044ZM39.511 27.65a50.775 50.775 0 0 1 1.88 4.926 50.72 50.72 0 0 1-5.223.89 83.634 83.634 0 0 0 1.72-2.849 76.04 76.04 0 0 0 1.623-2.967Zm-3.696 1.772a78.424 78.424 0 0 1-2.687 4.334c-1.706.121-3.417.181-5.128.18-1.743 0-3.438-.054-5.07-.16a67.86 67.86 0 0 1-2.737-4.34 67.264 67.264 0 0 1-2.39-4.513 67.884 67.884 0 0 1 2.383-4.514 67.192 67.192 0 0 1 2.715-4.323A67.727 67.727 0 0 1 28 15.893c1.734 0 3.444.067 5.109.194.95 1.404 1.85 2.84 2.698 4.308a78.428 78.428 0 0 1 2.414 4.493 72.044 72.044 0 0 1-2.406 4.533ZM40.75 2.706c1.875 1.082 2.604 5.443 1.426 11.162-.075.365-.16.737-.252 1.114-2.323-.537-4.846-.935-7.487-1.183-1.539-2.191-3.133-4.184-4.734-5.908.42-.405.849-.799 1.288-1.182 4.134-3.597 7.998-5.018 9.759-4.003ZM28 19.864a5 5 0 1 1 0 10.002 5 5 0 0 1 0-10.002Z"/>
</svg>
