<svg xmlns="http://www.w3.org/2000/svg" width="56" height="56" fill="none" viewBox="0 0 56 56">
  <path fill="url(#a)" d="M28 11c-7.467 0-12.133 3.733-14 11.2 2.8-3.733 6.067-5.133 9.8-4.2 2.13.532 3.652 2.078 5.338 3.788C31.883 24.575 35.06 27.8 42 27.8c7.467 0 12.133-3.733 14-11.2-2.8 3.733-6.067 5.133-9.8 4.2-2.13-.532-3.653-2.078-5.338-3.788C38.117 14.225 34.94 11 28 11ZM14 27.8C6.533 27.8 1.867 31.533 0 39c2.8-3.733 6.067-5.133 9.8-4.2 2.13.532 3.652 2.078 5.338 3.788C17.883 41.375 21.06 44.6 28 44.6c7.467 0 12.133-3.733 14-11.2-2.8 3.733-6.067 5.133-9.8 4.2-2.13-.532-3.653-2.078-5.338-3.788C24.117 31.025 20.94 27.8 14 27.8Z"/>
  <defs>
    <linearGradient id="a" x1="-1.556" x2="46.809" y1="21.752" y2="49.639" gradientUnits="userSpaceOnUse">
      <stop stop-color="#2298BD"/>
      <stop offset="1" stop-color="#0ED7B5"/>
    </linearGradient>
  </defs>
</svg>
