<svg xmlns="http://www.w3.org/2000/svg" width="56" height="56" fill="none" viewBox="0 0 56 56">
  <path fill="#007ACC" d="M0 28v28h56V0H0v28Z"/>
  <path fill="#fff" d="m12.384 28.186-.018 2.293h7.289V51.19h5.155V30.48h7.29v-2.25c0-1.244-.027-2.284-.063-2.311-.026-.035-4.462-.053-9.84-.044l-9.787.026-.026 2.285Zm32.803-2.35c1.422.356 2.506.987 3.502 2.018.515.551 1.28 1.555 1.342 1.795.017.072-2.418 1.707-3.893 2.623-.054.035-.267-.196-.507-.551-.72-1.05-1.476-1.503-2.631-1.583-1.698-.115-2.791.774-2.782 2.258 0 .436.062.693.24 1.049.373.773 1.066 1.236 3.244 2.178 4.009 1.724 5.724 2.862 6.791 4.48 1.191 1.804 1.458 4.684.649 6.826-.889 2.33-3.093 3.912-6.196 4.436-.96.169-3.235.142-4.266-.044-2.249-.4-4.382-1.512-5.698-2.97-.515-.568-1.52-2.053-1.458-2.16.027-.035.258-.177.516-.328a508.17 508.17 0 0 0 2.08-1.2l1.609-.934.337.498c.472.72 1.503 1.707 2.125 2.036 1.786.942 4.24.809 5.449-.276.515-.47.729-.96.729-1.68 0-.649-.08-.933-.418-1.422-.435-.622-1.324-1.147-3.849-2.24-2.889-1.245-4.133-2.018-5.271-3.244-.658-.711-1.28-1.85-1.538-2.8-.213-.792-.267-2.774-.098-3.574.596-2.791 2.703-4.738 5.743-5.315.986-.187 3.28-.116 4.249.124Z"/>
</svg>
